<svg xmlns="http://www.w3.org/2000/svg" viewBox="0 0 20 18.96"><path d="M5.55,5.85l.66-.8c.13-.16.27-.24.41-.25.14-.01.28.04.41.17.38.37.78.72,1.17,1.07.53.47,1.07.96,1.58,1.47.16.17.17.44,0,.61-.17.18-.45.19-.63.02l-2.46-2.24c-.9,1.08-1.81,2.15-2.71,3.22-.76.9-1.51,1.8-2.26,2.69.31-.13.62-.27.79-.34.42-.19.61-.05.91.19l.14.11c.1.07.18.14.26.2.09.07.17.13.26.2.42-.57.85-1.13,1.28-1.69.38-.49.75-.98,1.13-1.45.11-.14.24-.29.43-.31.19-.02.33.09.47.21.38.33.77.66,1.16,1l.31.27,3.73-4.32c.14-.16.27-.3.46-.3.18-.02.33.12.46.26.69.71,1.39,1.41,2.1,2.12,1.33,1.34,2.7,2.72,4.01,4.11.23-.82.37-1.68.38-2.58.03-5.36-4.33-9.48-10.03-9.48S0,4.12,0,9.4c0,.93.13,1.82.37,2.65,1.74-2.06,3.49-4.17,5.18-6.21h0Z" fill="#70b9e3"/><path d="M16.91,12.19l-1.15-.45c-.1-.04-.12-.03-.18.03-.2.2-.43.41-.67.6-.11.09-.24.12-.38.1-.13-.02-.25-.11-.31-.23-.1-.19-.06-.42.1-.56l.15-.13c.23-.2.45-.4.67-.6s.45-.25.74-.13c.49.19,1.43.57,2.18.86l-2.17-2.16c-1.69-1.69-2.45-2.45-2.79-2.82-.68.78-1.34,1.55-2,2.31l-1.71,1.99c-.33.39-.53.4-.92.07l-1.44-1.24c-.79.99-1.56,1.97-2.34,2.97-.25.34-.65.43-.96.21-.05-.04-.14-.11-.25-.2-.17-.14-.58-.48-.69-.51-.08.02-.73.3-1.15.49-.39.17-.72.32-.9.38,1.46,3.48,4.93,5.81,9.21,5.82,4.31,0,7.84-2.35,9.31-5.85-.74-.3-1.55-.62-2.35-.93Z" fill="#70b9e3"/></svg>
